<mxfile host="app.diagrams.net" agent="Mozilla/5.0 (X11; Linux x86_64) AppleWebKit/537.36 (KHTML, like Gecko) Chrome/139.0.0.0 Safari/537.36" version="28.2.1">
  <diagram name="Page-1" id="2icPGb5HWvyr74cVK8HZ">
    <mxGraphModel dx="782" dy="780" grid="1" gridSize="10" guides="1" tooltips="1" connect="1" arrows="1" fold="1" page="1" pageScale="1" pageWidth="827" pageHeight="1169" math="0" shadow="0">
      <root>
        <mxCell id="0" />
        <mxCell id="1" parent="0" />
        <mxCell id="MQS06do1NlFz_cNOQRB2-1" value="Storage" style="shape=cylinder3;whiteSpace=wrap;html=1;boundedLbl=1;backgroundOutline=1;size=15;" vertex="1" parent="1">
          <mxGeometry x="600" y="320" width="60" height="80" as="geometry" />
        </mxCell>
        <mxCell id="MQS06do1NlFz_cNOQRB2-2" value="weather web&lt;div&gt;service&lt;br&gt;&lt;div&gt;&lt;br&gt;&lt;/div&gt;&lt;/div&gt;" style="rounded=1;whiteSpace=wrap;html=1;" vertex="1" parent="1">
          <mxGeometry x="370" y="330" width="120" height="60" as="geometry" />
        </mxCell>
        <mxCell id="MQS06do1NlFz_cNOQRB2-3" style="edgeStyle=none;curved=1;rounded=0;orthogonalLoop=1;jettySize=auto;html=1;exitX=1;exitY=0.5;exitDx=0;exitDy=0;entryX=0;entryY=0.5;entryDx=0;entryDy=0;entryPerimeter=0;fontSize=12;startSize=8;endSize=8;" edge="1" parent="1" source="MQS06do1NlFz_cNOQRB2-2" target="MQS06do1NlFz_cNOQRB2-1">
          <mxGeometry relative="1" as="geometry" />
        </mxCell>
        <mxCell id="MQS06do1NlFz_cNOQRB2-12" style="edgeStyle=none;curved=1;rounded=0;orthogonalLoop=1;jettySize=auto;html=1;exitX=0.5;exitY=0.5;exitDx=0;exitDy=0;exitPerimeter=0;entryX=0;entryY=0;entryDx=0;entryDy=0;fontSize=12;startSize=8;endSize=8;" edge="1" parent="1" source="MQS06do1NlFz_cNOQRB2-4" target="MQS06do1NlFz_cNOQRB2-2">
          <mxGeometry relative="1" as="geometry" />
        </mxCell>
        <mxCell id="MQS06do1NlFz_cNOQRB2-4" value="User" style="shape=umlActor;verticalLabelPosition=bottom;verticalAlign=top;html=1;outlineConnect=0;" vertex="1" parent="1">
          <mxGeometry x="130" y="220" width="30" height="60" as="geometry" />
        </mxCell>
        <mxCell id="MQS06do1NlFz_cNOQRB2-10" style="edgeStyle=none;curved=1;rounded=0;orthogonalLoop=1;jettySize=auto;html=1;exitX=1;exitY=0.5;exitDx=0;exitDy=0;exitPerimeter=0;entryX=0;entryY=0.5;entryDx=0;entryDy=0;fontSize=12;startSize=8;endSize=8;" edge="1" parent="1" source="MQS06do1NlFz_cNOQRB2-6" target="MQS06do1NlFz_cNOQRB2-2">
          <mxGeometry relative="1" as="geometry" />
        </mxCell>
        <mxCell id="MQS06do1NlFz_cNOQRB2-6" value="Weather&lt;div&gt;Station&lt;/div&gt;" style="verticalLabelPosition=bottom;verticalAlign=top;html=1;shape=mxgraph.basic.sun" vertex="1" parent="1">
          <mxGeometry x="120" y="340" width="50" height="60" as="geometry" />
        </mxCell>
        <mxCell id="MQS06do1NlFz_cNOQRB2-11" style="edgeStyle=none;curved=1;rounded=0;orthogonalLoop=1;jettySize=auto;html=1;exitX=1;exitY=0.5;exitDx=0;exitDy=0;exitPerimeter=0;fontSize=12;startSize=8;endSize=8;" edge="1" parent="1" source="MQS06do1NlFz_cNOQRB2-8">
          <mxGeometry relative="1" as="geometry">
            <mxPoint x="370" y="360" as="targetPoint" />
          </mxGeometry>
        </mxCell>
        <mxCell id="MQS06do1NlFz_cNOQRB2-8" value="Weather&lt;div&gt;Station&lt;/div&gt;" style="verticalLabelPosition=bottom;verticalAlign=top;html=1;shape=mxgraph.basic.sun" vertex="1" parent="1">
          <mxGeometry x="120" y="460" width="50" height="60" as="geometry" />
        </mxCell>
        <mxCell id="MQS06do1NlFz_cNOQRB2-13" value="MVP" style="text;html=1;align=center;verticalAlign=middle;whiteSpace=wrap;rounded=0;" vertex="1" parent="1">
          <mxGeometry x="354" y="120" width="60" height="30" as="geometry" />
        </mxCell>
      </root>
    </mxGraphModel>
  </diagram>
</mxfile>
